<svg xmlns="http://www.w3.org/2000/svg" width="16" height="16" viewBox="-5 -10 110 135"><path fill="white" d="m87.742 73.488-18.621-16.66a32.672 32.672 0 0 0 4.223-13.793 4.82 4.82 0 0 1-2.223-2.883c-1.59-5.762-2.543-7.898-5.875-9.46a26.413 26.413 0 0 1 1.945 9.929c0 14.648-11.914 26.562-26.562 26.562-14.648 0-26.562-11.914-26.562-26.562 0-14.648 11.914-26.562 26.562-26.562 6.63 0 12.684 2.457 17.34 6.484a4.808 4.808 0 0 1 1.871-1.023c1.875-.516 3.352-.969 4.563-1.45C58.419 11.767 49.985 7.806 40.63 7.806c-18.098.008-32.816 14.727-32.816 32.82s14.719 32.812 32.812 32.812c5.894 0 11.418-1.586 16.203-4.317l16.66 18.617a10.12 10.12 0 0 0 7.242 3.36c.094.004.184.004.277.004a10.14 10.14 0 0 0 7.141-2.957 10.145 10.145 0 0 0 2.953-7.418 10.127 10.127 0 0 0-3.36-7.242z"/><path fill="white" d="M90.922 22.539c-9.168-2.531-10.93-4.293-13.461-13.461a1.726 1.726 0 0 0-3.328.004c-2.531 9.164-4.29 10.926-13.461 13.457a1.726 1.726 0 0 0 .004 3.328c9.168 2.531 10.93 4.29 13.457 13.457a1.726 1.726 0 0 0 3.328.004c2.531-9.168 4.293-10.93 13.457-13.461a1.726 1.726 0 0 0 .004-3.328zM58.23 39.883c-10.145-2.8-12.094-4.75-14.895-14.895a1.565 1.565 0 0 0-3.016 0c-2.8 10.145-4.75 12.094-14.895 14.895a1.564 1.564 0 0 0 0 3.016c10.145 2.8 12.094 4.75 14.895 14.895a1.565 1.565 0 0 0 3.016 0c2.8-10.145 4.75-12.094 14.895-14.895a1.565 1.565 0 0 0 0-3.016z"/></svg>